PathFileType	4	(X/Y/Z)	C:\Users\WrightLab\Desktop\Jo\P3_10.trc
DataRate	CameraRate	NumFrames	NumMarkers	Units	OrigDataRate	OrigDataStartFrame	OrigNumFrames
100.00	100.00	       80	19	mm	100.00	554	       633
Frame#	Time	Headset_Front			Headset_Back			Headset_Left			Headset_Right			Left_Shoulder			Right_Shoulder			Sternum			C7			Left Elbow			Right Elbow			Left Wrist			Right Wrist			Left ASIS			Right ASIS			S2			Left Knee			Right Knee			Left Ankle			Right Ankle			
		X1	Y1	Z1	X2	Y2	Z2	X3	Y3	Z3	X4	Y4	Z4	X5	Y5	Z5	X6	Y6	Z6	X7	Y7	Z7	X8	Y8	Z8	X9	Y9	Z9	X10	Y10	Z10	X11	Y11	Z11	X12	Y12	Z12	X13	Y13	Z13	X14	Y14	Z14	X15	Y15	Z15	X16	Y16	Z16	X17	Y17	Z17	X18	Y18	Z18	X19	Y19	Z19	

554	5.530	-142.82938	1067.84558	2820.10327													-79.55782	1451.20801	2560.09888													-228.88306	877.02350	2818.19946													-285.00778	518.32245	2690.71338	-169.95901	494.03656	2463.96558							
555	5.540	-153.87735	1067.56311	2823.81006													-82.90706	1450.96716	2565.54883													-240.26048	876.43488	2818.84424													-286.48132	516.54523	2690.78931	-170.24925	494.07834	2464.39063							
556	5.550	-165.04201	1067.13672	2827.28784													-86.41145	1450.66943	2570.96899													-251.77765	876.99963	2820.18799													-288.55011	515.39789	2692.51660	-170.69434	493.92587	2465.06201							
557	5.560	-176.30272	1066.80054	2830.10156													-90.18688	1450.42542	2576.64722													-261.73105	876.89484	2818.92188													-290.27563	513.03381	2691.89526	-171.12392	493.83112	2465.70508							
558	5.570	-187.63727	1066.20837	2832.80640													-93.94425	1450.55933	2582.27100													-273.59833	876.71686	2819.25659													-292.38440	512.39807	2694.03052	-172.01160	493.48230	2467.04761							
559	5.580	-199.22546	1066.26331	2835.49951													-98.08060	1450.56299	2587.80322													-285.16513	876.68542	2819.14722													-293.89560	511.07065	2694.28687	-173.07179	493.87958	2467.05493							
560	5.590																-102.03497	1450.84766	2593.15186													-296.14395	876.91699	2818.61841													-296.14557	510.51248	2695.67798	-173.88403	493.55051	2468.28418							
561	5.600																-106.59828	1451.05884	2598.57617													-307.27466	876.89301	2818.15796													-297.33640	509.86563	2695.62207										
562	5.610																-110.90102	1451.65747	2604.15259													-318.20413	877.48407	2816.38086													-299.12463	510.22293	2696.62280										
563	5.620																-115.27849	1452.04480	2609.59668													-329.08060	878.09137	2815.42749													-300.75232	510.02777	2697.24487										
564	5.630																-119.77911	1452.59473	2615.10474													-340.52396	878.63745	2813.99780													-303.26111	509.76016	2697.34131										
565	5.640																-124.34853	1453.38147	2620.33081													-351.49884	879.61157	2812.64575													-305.13998	510.02902	2698.04956										
566	5.650																-128.85007	1453.95752	2625.45557													-363.05997	880.76886	2810.26270													-306.73248	510.03415	2698.60767										
567	5.660																-133.39589	1454.58276	2630.47461													-374.45612	881.83484	2808.82568													-308.76883	509.38602	2700.03931										
568	5.670																-137.66528	1455.22583	2634.90601													-385.94547	883.06628	2806.66382													-311.02802	509.16370	2700.77856										
569	5.680																-142.03522	1455.40527	2639.25659													-397.28473	884.37024	2805.07373													-312.65082	509.53836	2702.70703										
570	5.690																-146.64534	1455.95422	2643.80444													-408.55551	885.31696	2802.17578													-313.60513	509.33975	2704.38647										
571	5.700																															-419.82068	886.37860	2798.83618													-314.71539	509.58249	2706.10815										
572	5.710																															-430.54346	887.26721	2795.82056													-315.57639	509.66461	2707.21924										
573	5.720																															-440.65802	888.92517	2792.02319													-315.83655	509.04120	2709.10132										
574	5.730																															-451.30872	890.30164	2788.36353													-316.34332	509.62592	2710.70288										
575	5.740																															-461.68411	891.77454	2784.55322													-317.37912	510.34616	2712.67920										
576	5.750																															-472.16919	893.63373	2780.77490													-317.70599	509.51575	2713.33545										
577	5.760																															-480.80106	895.40137	2776.94287													-318.31418	508.82901	2713.91748										
578	5.770																															-490.83170	897.24109	2772.17505													-319.29446	509.00436	2714.98804										
579	5.780																															-500.13663	899.03864	2768.42920													-319.80829	509.05011	2715.64893										
580	5.790																															-508.57791	900.98810	2763.84937													-320.61124	509.18579	2717.30688										
581	5.800																															-517.02148	903.70251	2759.51050													-321.69791	509.67484	2718.82300										
582	5.810																															-525.16516	906.23212	2755.79370													-322.47046	509.89081	2720.00806										
583	5.820																																														-322.89972	509.49438	2720.52441										
584	5.830																																														-323.96103	509.66290	2722.36206										
585	5.840																																														-324.26093	509.40692	2722.58130										
586	5.850																																														-324.72006	509.04489	2723.78564										
587	5.860																																														-325.73886	510.32431	2724.92188										
588	5.870																																														-325.99420	509.75702	2725.75806										
589	5.880																																														-326.16394	509.46112	2725.43579										
590	5.890																																														-325.92056	508.57919	2724.40771										
591	5.900																																														-327.09769	509.22726	2724.70972										
592	5.910																																														-328.24173	510.05118	2724.96997										
593	5.920																																														-328.44470	509.72787	2724.56982										
594	5.930																																														-328.53113	509.59561	2724.39673										
595	5.940																																														-328.82779	509.67120	2724.68799										
596	5.950																																																										
597	5.960																																																										
598	5.970																																																										
599	5.980																																																										
600	5.990																																																										
601	6.000																																																										
602	6.010																																																										
603	6.020																																																										
604	6.030																																																										
605	6.040																																																										
606	6.050																																																										
607	6.060																																																										
608	6.070																																																										
609	6.080																																																										
610	6.090																																																										
611	6.100																																																										
612	6.110																																																										
613	6.120																																																										
614	6.130																																																										
615	6.140																																																										
616	6.150																																																										
617	6.160																																																										
618	6.170																																																										
619	6.180																																																										
620	6.190																																																										
621	6.200																																																										
622	6.210																																																										
623	6.220																																																										
624	6.230																																																										
625	6.240																																																										
626	6.250																																																										
627	6.260																																																										
628	6.270																																																										
629	6.280																																																										
630	6.290																																																										
631	6.300																																																										
632	6.310																																																										
633	6.320																																																										
